<svg width="20" height="19" viewBox="0 0 20 19" fill="none" xmlns="http://www.w3.org/2000/svg">
<path d="M13.814 4.90886C13.814 7.34669 11.8506 9.31771 9.43508 9.31771C7.01954 9.31771 5.05615 7.34669 5.05615 4.90886C5.05615 2.47103 7.01954 0.5 9.43508 0.5C11.8506 0.5 13.814 2.47103 13.814 4.90886Z" stroke="black"/>
<path fill-rule="evenodd" clip-rule="evenodd" d="M5.72392 11.0681H5.67773L5.63233 11.0766L5.72392 11.5681C5.63233 11.0766 5.63218 11.0766 5.63201 11.0766L5.63164 11.0767L5.63073 11.0769L5.62829 11.0773L5.62091 11.0788L5.59647 11.0837C5.57597 11.088 5.54715 11.0941 5.51083 11.1025C5.43822 11.1192 5.33539 11.1445 5.20876 11.1803C4.95592 11.2518 4.60584 11.3655 4.21075 11.5358C3.42639 11.8741 2.43288 12.4493 1.68396 13.3912C0.94626 14.319 0.571754 15.3424 0.380547 16.1233C0.284521 16.5154 0.233453 16.8516 0.206292 17.0918C0.192694 17.212 0.185037 17.3087 0.180747 17.3768C0.178601 17.4109 0.177294 17.4379 0.176508 17.4571L0.175677 17.4802L0.175479 17.4873L0.175422 17.4897L0.175402 17.4906L0.175393 17.491C0.17539 17.4911 0.175387 17.4913 0.675284 17.5014L0.175387 17.4913L0.165039 18.0014H0.675284H9.41499H9.92404H18.6637H19.174L19.1636 17.4913L18.6637 17.5014C19.1636 17.4913 19.1636 17.4911 19.1636 17.491L19.1636 17.4906L19.1636 17.4897L19.1636 17.4873L19.1634 17.4802L19.1625 17.4571C19.1617 17.4379 19.1604 17.4109 19.1583 17.3768C19.154 17.3087 19.1463 17.212 19.1327 17.0918C19.1056 16.8516 19.0545 16.5154 18.9585 16.1233C18.7673 15.3424 18.3928 14.319 17.6551 13.3912C16.9062 12.4493 15.9126 11.8741 15.1283 11.5358C14.7332 11.3655 14.3831 11.2518 14.1303 11.1803C14.0036 11.1445 13.9008 11.1192 13.8282 11.1025C13.7919 11.0941 13.7631 11.088 13.7426 11.0837L13.7181 11.0788L13.7107 11.0773L13.7083 11.0769L13.7074 11.0767L13.707 11.0766C13.7069 11.0766 13.7067 11.0766 13.6151 11.5681L13.7067 11.0766L13.6613 11.0681H13.6151H9.66954V12.0681H13.5641L13.6042 12.0771C13.6622 12.0904 13.7489 12.1117 13.8583 12.1426C14.0775 12.2046 14.385 12.3043 14.7323 12.4541C15.4329 12.7562 16.2636 13.248 16.8723 14.0136C17.4923 14.7932 17.8178 15.6693 17.9872 16.3611C18.0467 16.6043 18.0864 16.8221 18.1127 17.0014H9.92404H9.41499H1.22636C1.25268 16.8221 1.29231 16.6043 1.35185 16.3611C1.52126 15.6693 1.84677 14.7932 2.46669 14.0136C3.07539 13.248 3.90617 12.7562 4.60671 12.4541C4.95406 12.3043 5.26158 12.2046 5.48072 12.1426C5.59009 12.1117 5.67684 12.0904 5.73482 12.0771L5.77489 12.0681H9.66949V11.0681H5.72392Z" fill="black"/>
</svg>
