<svg width="15" height="19" viewBox="0 0 15 19" fill="none" xmlns="http://www.w3.org/2000/svg">
<path fill-rule="evenodd" clip-rule="evenodd" d="M7.96944 0.979119C7.95565 0.978443 7.94171 0.978331 7.92766 0.978803C5.08998 1.07411 3.33885 2.30154 2.30675 3.76574C1.29243 5.20472 0.994712 6.83745 0.969501 7.76256C0.948109 8.54756 1.20665 9.45502 1.50704 10.2344C1.81191 11.0254 2.18334 11.7434 2.43704 12.1701L2.45318 12.1973L2.47262 12.2222L7.59682 18.7898C7.76669 19.0075 8.08089 19.0463 8.2986 18.8764C8.36028 18.8283 8.4076 18.7686 8.43988 18.7028L13.4628 12.2209L13.4817 12.1966L13.4974 12.1701C13.7511 11.7434 14.1225 11.0254 14.4274 10.2344C14.7278 9.45502 14.9863 8.54756 14.9649 7.76256C14.9396 6.83396 14.6287 5.20117 13.6027 3.76338C12.5603 2.30258 10.8012 1.07677 7.96944 0.979119ZM7.98327 17.6594L12.6532 11.6331C12.8808 11.2464 13.2177 10.5923 13.4943 9.87477C13.7816 9.12921 13.9812 8.37229 13.9653 7.7898C13.944 7.00904 13.6726 5.58296 12.7887 4.34425C11.9243 3.13292 10.4533 2.06777 7.94391 1.97884C5.43508 2.06775 3.97668 3.13236 3.1241 4.34188C2.25179 5.57941 1.9905 7.00554 1.96913 7.7898C1.95326 8.37229 2.15278 9.12921 2.44013 9.87477C2.71652 10.5919 3.05315 11.2456 3.28081 11.6324L7.98327 17.6594Z" fill="#1D1919"/>
<path d="M10.0958 7.51753C10.0958 8.74246 9.0624 9.76503 7.75053 9.76503C6.43866 9.76503 5.40527 8.74246 5.40527 7.51753C5.40527 6.29259 6.43866 5.27002 7.75053 5.27002C9.0624 5.27002 10.0958 6.29259 10.0958 7.51753Z" stroke="#1D1919"/>
</svg>
