<svg width="446" height="158" viewBox="0 0 446 158" fill="none" xmlns="http://www.w3.org/2000/svg">
<path d="M63.3728 117.821C63.3728 130.398 60.612 140.099 55.0905 146.924C49.5485 153.782 41.7624 157.217 31.7324 157.217C21.6922 157.217 13.9153 154.171 8.34378 148.08C2.77229 141.989 0 133.135 0 121.515V94.0764H22.6145V120.359C22.6145 128.848 23.9848 134.037 26.7258 135.926C28.088 136.752 29.6617 137.164 31.2541 137.11C32.7459 137.265 34.2467 136.914 35.5208 136.123C36.7948 135.332 37.7701 134.145 38.293 132.739C39.6434 128.273 40.2177 123.609 39.9912 118.949V1.83304H63.38L63.3728 117.821ZM86.0756 155.44V1.83304H137.56V22.0245H109.464V66.6938H136.159V86.4341H109.464V135.277H138.603V155.44H86.0829H86.0756ZM157.314 155.44V1.83304H208.798V22.0245H180.702V66.6938H207.397V86.4341H180.702V135.277H209.841V155.44H157.314ZM245.75 155.44L221.914 1.83304H244.171L254.211 71.2341L260.409 120.077H261.035L266.337 71.2341L274.739 1.83304H296.548L274.649 155.44H245.75ZM312.877 155.44V1.83304H364.357V22.0245H336.262V66.6938H362.957V86.4341H336.262V135.277H365.401V155.44H312.877ZM381.047 112.237V98.532H403.214V113.986C403.214 122.529 403.948 128.545 405.417 132.034C406.041 133.667 407.175 135.047 408.652 135.982C410.129 136.917 411.868 137.357 413.611 137.223C417.634 137.223 420.289 135.813 421.596 132.936C422.906 130.088 423.561 125.436 423.561 118.949C423.69 113.128 422.499 107.352 420.076 102.057C417.183 96.4936 413.444 91.4137 408.992 86.9981L397.642 75.3231C392.667 70.2533 388.497 64.4519 385.277 58.1209C382.235 51.6925 380.725 44.6453 380.868 37.5347C380.868 24.8444 383.311 15.4162 388.197 9.24973C393.114 3.07363 401.525 -0.00960325 413.432 2.24681e-05C425.344 2.24681e-05 433.424 3.60989 437.655 10.7444C441.885 17.9636 444.001 28.4637 444.001 42.2441V51.7758H422.429V40.7213C422.429 33.3047 421.784 27.9845 420.493 24.7599C419.979 23.2489 418.976 21.9438 417.644 21.0657C416.311 20.1876 414.724 19.7856 413.133 19.9095C411.618 19.7795 410.097 20.061 408.717 20.6991C407.338 21.3372 406.149 22.3091 405.267 23.5473C403.659 26.0001 402.883 29.667 402.883 34.5454C402.692 38.5996 403.533 42.636 405.327 46.2768C407.822 50.3211 410.782 54.0594 414.145 57.4159L426.779 71.1495C432.645 77.2878 437.492 84.3228 441.14 91.9895C444.425 99.2217 446.083 107.086 445.997 115.029C445.997 129.411 443.584 140.034 438.758 146.896C433.93 153.754 425.469 157.217 413.402 157.217C401.306 157.217 392.894 153.382 388.167 145.711C383.424 138.039 381.039 126.929 381.039 112.237H381.047Z" fill="white"/>
</svg>
