<svg width="21" height="12" viewBox="0 0 21 12" fill="none" xmlns="http://www.w3.org/2000/svg">
<path d="M11.1146 2.40039C11.1146 2.12425 10.8907 1.90039 10.6146 1.90039C10.3384 1.90039 10.1146 2.12425 10.1146 2.40039H11.1146ZM10.1146 9.60039C10.1146 9.87653 10.3384 10.1004 10.6146 10.1004C10.8907 10.1004 11.1146 9.87653 11.1146 9.60039H10.1146ZM12.6142 4.36961C12.8319 4.53947 13.1461 4.50067 13.3159 4.28295C13.4858 4.06523 13.447 3.75103 13.2293 3.58117L12.6142 4.36961ZM10.6146 3.25539L10.5929 3.75492L10.6037 3.75539H10.6146V3.25539ZM10.7299 5.95539L10.7992 5.46022L10.7841 5.4581L10.7688 5.45691L10.7299 5.95539ZM10.9606 8.61039V9.11039H10.9724L10.9842 9.10983L10.9606 8.61039ZM8.33395 7.37167C8.09717 7.22957 7.79004 7.30632 7.64794 7.5431C7.50584 7.77988 7.58259 8.08701 7.81937 8.22911L8.33395 7.37167ZM10.1146 2.40039V9.60039H11.1146V2.40039H10.1146ZM10.6146 3.25539C10.6362 2.75586 10.636 2.75585 10.6359 2.75585C10.6358 2.75584 10.6356 2.75583 10.6355 2.75583C10.6352 2.75582 10.6349 2.75581 10.6346 2.75579C10.6339 2.75576 10.6331 2.75573 10.6322 2.7557C10.6304 2.75563 10.628 2.75554 10.6252 2.75545C10.6195 2.75526 10.6119 2.75504 10.6024 2.75482C10.5835 2.7544 10.5571 2.75402 10.5244 2.75407C10.4592 2.75417 10.3678 2.75598 10.2587 2.76265C10.043 2.77583 9.74608 2.80869 9.44005 2.89046C8.86506 3.04409 8.02516 3.4471 7.9809 4.44831L8.97993 4.49247C8.99335 4.18868 9.22052 3.98419 9.69818 3.85657C9.91847 3.79771 10.1443 3.77151 10.3197 3.76079C10.4062 3.7555 10.4775 3.75415 10.526 3.75407C10.5502 3.75403 10.5685 3.75432 10.58 3.75457C10.5858 3.7547 10.5898 3.75482 10.592 3.7549C10.5931 3.75493 10.5937 3.75496 10.5939 3.75496C10.594 3.75497 10.5939 3.75496 10.5938 3.75496C10.5937 3.75495 10.5936 3.75495 10.5934 3.75494C10.5933 3.75494 10.5932 3.75494 10.5932 3.75493C10.593 3.75493 10.5929 3.75492 10.6146 3.25539ZM7.9809 4.44831C7.95899 4.94412 8.16961 5.33289 8.46082 5.6132C8.73964 5.88159 9.09522 6.05617 9.41193 6.1719C9.73405 6.2896 10.0519 6.35922 10.2851 6.39956C10.4028 6.41992 10.5016 6.43327 10.572 6.44163C10.6073 6.44581 10.6356 6.44876 10.6558 6.45072C10.6659 6.4517 10.6739 6.45243 10.6799 6.45295C10.6828 6.4532 10.6853 6.45341 10.6871 6.45356C10.688 6.45364 10.6888 6.4537 10.6895 6.45375C10.6898 6.45378 10.6901 6.4538 10.6904 6.45382C10.6905 6.45383 10.6907 6.45385 10.6907 6.45385C10.6909 6.45386 10.691 6.45388 10.7299 5.95539C10.7688 5.45691 10.7689 5.45692 10.769 5.45692C10.7691 5.45693 10.7692 5.45694 10.7692 5.45694C10.7694 5.45695 10.7694 5.45696 10.7695 5.45696C10.7696 5.45697 10.7695 5.45696 10.7694 5.45695C10.769 5.45692 10.7681 5.45685 10.7667 5.45672C10.7639 5.45648 10.759 5.45604 10.7523 5.45538C10.7387 5.45407 10.7175 5.45188 10.6898 5.44859C10.6343 5.442 10.5533 5.4311 10.4556 5.41419C10.2579 5.38 10.0026 5.32306 9.75513 5.23264C9.50226 5.14024 9.29186 5.02513 9.15431 4.89274C9.02915 4.77226 8.973 4.64917 8.97993 4.49247L7.9809 4.44831ZM10.7299 5.95539C10.6606 6.45056 10.6605 6.45054 10.6604 6.45053C10.6603 6.45053 10.6602 6.45051 10.6602 6.45051C10.6601 6.45049 10.66 6.45048 10.66 6.45048C10.66 6.45047 10.66 6.45049 10.6603 6.45052C10.6607 6.45058 10.6616 6.45071 10.6631 6.45093C10.666 6.45136 10.6709 6.4521 10.6777 6.45316C10.6913 6.4553 10.7123 6.45872 10.7397 6.46355C10.7947 6.47322 10.8747 6.48844 10.971 6.51006C11.1657 6.55374 11.4182 6.62153 11.6637 6.71853C11.9149 6.81781 12.126 6.93503 12.2639 7.06268C12.3938 7.18298 12.427 7.27936 12.4224 7.36979L13.4211 7.42099C13.4453 6.94893 13.2189 6.58405 12.9433 6.32888C12.6756 6.08106 12.3351 5.9086 12.0312 5.7885C11.7215 5.66612 11.4152 5.58485 11.1899 5.53431C11.0763 5.50883 10.981 5.49064 10.9132 5.4787C10.8792 5.47272 10.852 5.46827 10.8326 5.46524C10.823 5.46372 10.8152 5.46256 10.8096 5.46173C10.8068 5.46131 10.8046 5.46098 10.8028 5.46073C10.8019 5.4606 10.8012 5.4605 10.8006 5.46042C10.8003 5.46037 10.8001 5.46034 10.7998 5.4603C10.7997 5.46029 10.7996 5.46027 10.7995 5.46026C10.7994 5.46024 10.7992 5.46022 10.7299 5.95539ZM12.4224 7.36979C12.4108 7.59472 12.2162 7.79686 11.7596 7.95105C11.5559 8.01982 11.3479 8.06061 11.1872 8.08393C11.1078 8.09544 11.0424 8.10234 10.998 8.10631C10.9759 8.10829 10.9591 8.10952 10.9486 8.11022C10.9434 8.11057 10.9397 8.11079 10.9377 8.1109C10.9368 8.11096 10.9362 8.11099 10.9361 8.11099C10.936 8.111 10.936 8.111 10.9362 8.11099C10.9363 8.11098 10.9364 8.11098 10.9365 8.11097C10.9366 8.11097 10.9367 8.11096 10.9367 8.11096C10.9369 8.11095 10.937 8.11095 10.9606 8.61039C10.9842 9.10983 10.9844 9.10983 10.9846 9.10982C10.9846 9.10981 10.9848 9.10981 10.9849 9.1098C10.9852 9.10979 10.9854 9.10977 10.9857 9.10976C10.9864 9.10973 10.9871 9.10969 10.988 9.10965C10.9897 9.10956 10.9918 9.10944 10.9944 9.10929C10.9997 9.109 11.0067 9.10857 11.0154 9.10799C11.0328 9.10682 11.057 9.10502 11.087 9.10234C11.1469 9.09699 11.2307 9.08808 11.3307 9.07357C11.5286 9.04486 11.8001 8.99284 12.0795 8.89848C12.589 8.72643 13.3749 8.32106 13.4211 7.42099L12.4224 7.36979ZM12.9217 3.97539C13.2293 3.58117 13.2292 3.58114 13.2292 3.5811C13.2292 3.58108 13.2291 3.58104 13.2291 3.58101C13.229 3.58095 13.2289 3.58089 13.2288 3.58081C13.2286 3.58067 13.2284 3.58051 13.2282 3.58032C13.2277 3.57995 13.2271 3.57949 13.2264 3.57895C13.225 3.57786 13.2232 3.57643 13.2209 3.57468C13.2163 3.57117 13.21 3.56635 13.2021 3.56037C13.1862 3.54841 13.1638 3.53173 13.1358 3.51142C13.0798 3.47089 13.0007 3.41535 12.9059 3.3537C12.7204 3.23314 12.4571 3.07744 12.1806 2.96958L11.8171 3.9012C12.0021 3.97334 12.2001 4.08764 12.3608 4.19208C12.439 4.24293 12.5041 4.28864 12.5491 4.32124C12.5715 4.33749 12.5888 4.35034 12.5999 4.35877C12.6055 4.36298 12.6096 4.36608 12.612 4.36793C12.6132 4.36886 12.614 4.36947 12.6144 4.36975C12.6145 4.3699 12.6146 4.36996 12.6146 4.36993C12.6146 4.36992 12.6145 4.36989 12.6145 4.36984C12.6144 4.36981 12.6144 4.36978 12.6143 4.36974C12.6143 4.36972 12.6143 4.36969 12.6143 4.36968C12.6142 4.36964 12.6142 4.36961 12.9217 3.97539ZM12.1806 2.96958C11.8744 2.85013 11.4622 2.802 11.1726 2.77941C11.0185 2.76738 10.8805 2.76141 10.781 2.75843C10.731 2.75693 10.6904 2.75617 10.6618 2.75579C10.6475 2.75559 10.6362 2.7555 10.6282 2.75544C10.6242 2.75542 10.6211 2.75541 10.6188 2.7554C10.6176 2.75539 10.6167 2.75539 10.616 2.75539C10.6156 2.75539 10.6153 2.75539 10.6151 2.75539C10.615 2.75539 10.6149 2.75539 10.6148 2.75539C10.6147 2.75539 10.6147 2.75539 10.6147 2.75539C10.6146 2.75539 10.6146 2.75539 10.6146 3.25539C10.6146 3.75539 10.6145 3.75539 10.6145 3.75539C10.6145 3.75539 10.6144 3.75539 10.6144 3.75539C10.6144 3.75539 10.6143 3.75539 10.6143 3.75539C10.6143 3.75539 10.6144 3.75539 10.6145 3.75539C10.6146 3.75539 10.615 3.75539 10.6157 3.75539C10.6169 3.7554 10.619 3.75541 10.6218 3.75542C10.6276 3.75546 10.6365 3.75554 10.6484 3.7557C10.6721 3.75602 10.7071 3.75666 10.751 3.75798C10.8389 3.76062 10.9605 3.7659 11.0948 3.77638C11.382 3.79878 11.6619 3.84065 11.8171 3.9012L12.1806 2.96958ZM10.9606 8.61039C10.9606 8.11039 10.9607 8.11039 10.9607 8.11039C10.9607 8.11039 10.9608 8.11039 10.9608 8.11039C10.9608 8.11039 10.9609 8.11039 10.9609 8.11039C10.9609 8.11039 10.9609 8.11039 10.9608 8.11039C10.9607 8.11039 10.9603 8.11039 10.9598 8.11039C10.9587 8.11038 10.9568 8.11038 10.9541 8.11036C10.9488 8.11032 10.9404 8.11025 10.9293 8.11009C10.9069 8.10977 10.8734 8.10913 10.831 8.10782C10.7458 8.10519 10.6255 8.0999 10.4867 8.08933C10.2025 8.0677 9.86665 8.02575 9.59743 7.94937L9.3245 8.91141C9.68975 9.01503 10.1037 9.06308 10.4108 9.08645C10.5675 9.09838 10.7032 9.10434 10.8001 9.10734C10.8486 9.10884 10.8877 9.1096 10.9152 9.10999C10.9289 9.11018 10.9397 9.11028 10.9474 9.11033C10.9512 9.11036 10.9542 9.11037 10.9565 9.11038C10.9576 9.11039 10.9585 9.11039 10.9592 9.11039C10.9595 9.11039 10.9598 9.11039 10.9601 9.11039C10.9602 9.11039 10.9603 9.11039 10.9604 9.11039C10.9604 9.11039 10.9605 9.11039 10.9605 9.11039C10.9606 9.11039 10.9606 9.11039 10.9606 8.61039ZM9.59743 7.94937C9.32635 7.87247 9.01388 7.73193 8.75665 7.60176C8.63088 7.53811 8.52372 7.47972 8.44838 7.43745C8.41078 7.41636 8.38132 7.3994 8.36166 7.38796C8.35183 7.38224 8.34447 7.3779 8.33977 7.37513C8.33743 7.37374 8.33575 7.37274 8.33477 7.37216C8.33428 7.37187 8.33397 7.37168 8.33383 7.3716C8.33376 7.37156 8.33374 7.37154 8.33376 7.37155C8.33377 7.37156 8.33379 7.37157 8.33382 7.37159C8.33384 7.3716 8.33387 7.37162 8.33388 7.37162C8.33391 7.37165 8.33395 7.37167 8.07666 7.80039C7.81937 8.22911 7.81941 8.22914 7.81946 8.22917C7.81948 8.22918 7.81953 8.22921 7.81957 8.22923C7.81965 8.22928 7.81974 8.22933 7.81984 8.22939C7.82004 8.22951 7.82029 8.22966 7.82058 8.22984C7.82117 8.23019 7.82194 8.23065 7.82289 8.23121C7.82478 8.23234 7.8274 8.2339 7.8307 8.23585C7.8373 8.23975 7.84667 8.24526 7.85858 8.2522C7.8824 8.26606 7.91648 8.28567 7.95909 8.30958C8.04417 8.35731 8.16412 8.42267 8.30512 8.49402C8.58143 8.63385 8.9611 8.80831 9.3245 8.91141L9.59743 7.94937Z" fill="#1D1919"/>
<path d="M4.84612 0.400391C4.84612 0.400391 5.00524 2.65833 3.63458 3.60039C2.26392 4.54245 0.403809 3.60039 0.403809 3.60039" stroke="#1D1919"/>
<path d="M16.1539 0.400391C16.1539 0.400391 15.7206 2.65833 17.3654 3.60039C19.0102 4.54245 20.5962 3.60039 20.5962 3.60039" stroke="#1D1919"/>
<path d="M4.84612 11.6001C4.84612 11.6001 5.04817 9.70103 3.67751 8.52346C2.30685 7.34589 0.403809 8.4001 0.403809 8.4001" stroke="#1D1919"/>
<path d="M16.1539 11.6001C16.1539 11.6001 15.7206 9.97767 17.3654 8.8001C19.0102 7.62253 20.5962 8.4001 20.5962 8.4001" stroke="#1D1919"/>
<rect x="0.5" y="0.5" width="20" height="11" rx="0.5" stroke="#1D1919"/>
</svg>
