<svg width="57" height="110" viewBox="0 0 57 110" fill="none" xmlns="http://www.w3.org/2000/svg">
<path fill-rule="evenodd" clip-rule="evenodd" d="M17.0572 35.9144C17.0572 39.805 16.3247 42.8111 14.8596 44.9328C14.1921 45.9485 13.2712 46.7755 12.1864 47.3331C11.1016 47.8908 9.88982 48.1602 8.66904 48.1151C6.00427 48.1151 3.945 47.1745 2.46552 45.2808C0.986046 43.387 0.254883 40.6607 0.254883 37.0526V28.5624H6.25068V36.6959C6.25068 39.3284 6.61418 40.9304 7.34094 41.5142C7.68723 41.7716 8.11121 41.9048 8.54362 41.8921C8.96495 41.9168 9.38176 41.7947 9.72214 41.5469C10.0625 41.2992 10.3051 40.9413 10.4082 40.535C10.7067 39.6418 10.8407 38.2116 10.8407 36.2619V0H17.0398V35.9151L17.0572 35.9144ZM23.0746 47.5653V0H36.71V6.24928H29.2781V20.0852H36.3553V26.192H29.2781V41.3206H37.0042V47.5648L23.0746 47.5653ZM41.9617 47.5653V0H55.6142V6.24928H48.1652V20.0852H55.2424V26.192H48.1652V41.3206H55.8913V47.5648L41.9617 47.5653Z" fill="white"/>
<path fill-rule="evenodd" clip-rule="evenodd" d="M6.62714 97.6465L0.631348 50.1714H6.23352L8.75646 71.6222L10.3224 86.7173H10.4782L11.8149 71.6137L13.9214 50.1716H19.4067L13.8998 97.6467L6.62714 97.6465ZM23.4983 97.6465V50.1714H36.4459V56.3983H29.3988V70.2136H36.1126V76.3075H29.3988V91.3982H36.7097V97.6336L23.4983 97.6465ZM40.6421 84.2951V80.0563H46.2269V84.8274C46.2269 87.4684 46.4172 89.3323 46.7849 90.4102C47.1525 91.4881 47.8318 92.025 48.8441 92.025C49.2805 92.0615 49.7165 91.9502 50.0811 91.7093C50.4456 91.4683 50.7171 91.1119 50.8515 90.6981C51.1861 89.8135 51.3519 88.3734 51.349 86.3778C51.3884 84.599 51.0951 82.8284 50.4838 81.1559C49.7834 79.4807 48.8437 77.9143 47.6936 76.5049L44.8385 72.8847C43.5557 71.2676 42.5085 69.4794 41.7277 67.5726C40.949 65.5368 40.5673 63.3727 40.6029 61.1954C40.6029 57.2703 41.2173 54.3572 42.4459 52.4561C43.6746 50.5551 45.8 49.6003 48.8223 49.5917C51.8189 49.5917 53.8491 50.7021 54.9132 52.923C55.9772 55.1439 56.5093 58.3861 56.5095 62.6495V65.5954H51.0717V62.1958C51.0717 59.9053 50.9084 58.2563 50.5818 57.2486C50.2616 56.2436 49.6473 55.7498 48.7302 55.7498C48.3255 55.7248 47.9222 55.8186 47.5707 56.0194C47.2192 56.2203 46.9349 56.5193 46.7533 56.8793C46.3467 57.635 46.1519 58.7689 46.1519 60.2804C46.1017 61.5149 46.311 62.7463 46.7663 63.8962C47.3771 65.1253 48.1213 66.2845 48.9855 67.3533L52.1651 71.5874C53.6759 73.5508 54.8928 75.7206 55.7783 78.0296C56.6129 80.3138 57.0261 82.7287 56.9982 85.1584C56.9982 89.5988 56.3911 92.8815 55.177 95.0065C53.9657 97.1237 51.833 98.1919 48.8005 98.1919C45.7681 98.1919 43.6439 97.0023 42.4545 94.6361C41.265 92.2699 40.6593 88.8214 40.6593 84.2951H40.6421Z" fill="white"/>
<path fill-rule="evenodd" clip-rule="evenodd" d="M0 109.864V100.438H1.44053C1.65841 100.423 1.87501 100.481 2.05663 100.601C2.23825 100.722 2.37472 100.898 2.44481 101.103C2.6573 101.744 2.75399 102.418 2.73041 103.092V103.289C2.76169 104.015 2.67104 104.74 2.46219 105.436C2.40534 105.651 2.27666 105.839 2.09736 105.971C1.91806 106.103 1.69883 106.171 1.4758 106.162H0.956755V109.864H0ZM0.955289 104.964H1.284C1.48731 104.964 1.61714 104.844 1.67764 104.612C1.75693 104.172 1.78887 103.724 1.77292 103.277V103.092C1.78235 102.692 1.74901 102.292 1.67347 101.898C1.60856 101.662 1.48315 101.542 1.29282 101.542H0.955289V104.977V104.964ZM3.37339 109.864V100.438H5.47994V101.675H4.32869V104.419H5.42311V105.627H4.32869V108.633H5.52256V109.865L3.37339 109.864ZM7.55218 105.432L7.24502 105.411V109.864H6.28973V100.438H7.87307C8.01029 100.428 8.14805 100.449 8.27554 100.501C8.40303 100.552 8.51679 100.632 8.60791 100.734C8.78895 100.976 8.89968 101.263 8.92804 101.563C8.98626 102.025 9.01229 102.49 9.00594 102.955C9.01644 103.387 8.97574 103.82 8.88469 104.243C8.86139 104.37 8.81064 104.49 8.73595 104.596C8.66126 104.701 8.56441 104.789 8.45212 104.853C8.66848 104.908 8.81986 105.127 8.90625 105.51C9.01515 106.301 9.0571 107.099 9.03166 107.897C9.03166 109.103 9.04464 109.751 9.0706 109.843H8.11017C8.08715 109.771 8.07564 108.645 8.07564 106.463C8.09418 106.181 8.06047 105.899 7.97619 105.63C7.93622 105.559 7.8768 105.501 7.80482 105.462C7.73284 105.423 7.65127 105.405 7.56957 105.411L7.55218 105.432ZM7.24943 104.299H7.63449C7.68629 104.303 7.73842 104.294 7.78554 104.272C7.83266 104.25 7.87309 104.217 7.90271 104.174C7.97631 104.042 8.01783 103.895 8.02395 103.745C8.04551 103.543 8.05849 103.238 8.05849 102.826V102.77C8.07582 102.433 8.04673 102.094 7.97202 101.765C7.94166 101.687 7.88585 101.622 7.81362 101.58C7.74138 101.538 7.65695 101.521 7.57398 101.533H7.24943V104.281V104.299ZM9.77238 107.215V106.356H10.6809V107.301C10.6665 107.672 10.697 108.044 10.7718 108.409C10.8323 108.623 10.9447 108.726 11.1093 108.726C11.186 108.729 11.261 108.703 11.3206 108.655C11.3802 108.607 11.4204 108.54 11.4338 108.465C11.501 108.183 11.5287 107.894 11.5161 107.606C11.5224 107.255 11.4743 106.906 11.3733 106.571C11.2631 106.244 11.1104 105.934 10.9192 105.647L10.4563 104.93C10.2409 104.601 10.0707 104.246 9.95021 103.873C9.82261 103.464 9.76126 103.038 9.76846 102.611C9.7357 102.023 9.8378 101.436 10.0671 100.893C10.1645 100.708 10.3143 100.555 10.498 100.454C10.6817 100.352 10.8913 100.306 11.101 100.322C11.317 100.308 11.5315 100.366 11.7107 100.487C11.89 100.607 12.0239 100.783 12.0915 100.987C12.2919 101.61 12.3798 102.263 12.3512 102.916V103.499H11.486V102.825C11.4977 102.495 11.4715 102.165 11.4081 101.841C11.3562 101.644 11.2568 101.545 11.1054 101.545C11.035 101.543 10.9658 101.564 10.9082 101.604C10.8506 101.644 10.8075 101.702 10.7852 101.768C10.7087 101.985 10.6749 102.214 10.6858 102.443C10.6782 102.687 10.7118 102.931 10.7852 103.164C10.8839 103.403 11.0056 103.631 11.1485 103.847L11.6629 104.706C11.9141 105.108 12.1117 105.541 12.2507 105.994C12.3882 106.454 12.4552 106.932 12.4496 107.412C12.4847 108.076 12.3848 108.74 12.1557 109.365C12.0697 109.564 11.9237 109.732 11.7378 109.845C11.5519 109.958 11.3353 110.012 11.1176 109.998C10.8915 110.007 10.6684 109.944 10.4819 109.817C10.2953 109.689 10.1556 109.505 10.0837 109.292C9.85874 108.632 9.75907 107.936 9.78977 107.24L9.77238 107.215ZM14.0205 107.245C14.0059 107.632 14.0335 108.019 14.1028 108.4C14.1591 108.619 14.2757 108.731 14.4489 108.731C14.6221 108.731 14.7387 108.619 14.7918 108.396C14.8621 108.016 14.8911 107.63 14.8783 107.245V102.851C14.889 102.523 14.86 102.194 14.7918 101.872C14.7355 101.67 14.6275 101.567 14.4631 101.567C14.2987 101.567 14.1863 101.67 14.1202 101.872C14.0398 102.191 14.0064 102.519 14.0207 102.847V107.245L14.0205 107.245ZM15.8375 107.245C15.8748 107.947 15.7628 108.65 15.5088 109.306C15.4246 109.514 15.2782 109.69 15.0894 109.813C14.9006 109.935 14.6785 109.996 14.4533 109.989C14.2278 109.995 14.0059 109.933 13.8166 109.811C13.6274 109.689 13.4799 109.513 13.3934 109.306C13.1322 108.651 13.0171 107.948 13.0559 107.245V102.95C13.0559 101.232 13.5259 100.373 14.466 100.373C14.6886 100.362 14.909 100.42 15.0972 100.538C15.2853 100.657 15.4321 100.83 15.5173 101.034C15.762 101.648 15.8712 102.307 15.8375 102.967V107.261V107.245ZM16.7026 109.882V100.438H17.451L18.7832 106.094L18.7139 103.516V100.433H19.579V109.863H18.9001L17.5284 104.01L17.5803 106.484V109.864L16.7026 109.882ZM22.2095 107.047L21.777 102.323L21.3919 107.047H22.2095ZM20.2323 109.882L21.1364 100.438H22.3996L23.3549 109.865H22.4638L22.3124 108.181H21.2959L21.1619 109.865L20.2323 109.882ZM24.0089 109.882V100.438H24.9642V108.645H26.1755V109.864L24.0089 109.882Z" fill="white"/>
<path fill-rule="evenodd" clip-rule="evenodd" d="M30.9048 107.03L30.472 102.28L30.0783 107.03H30.9048ZM28.8975 109.865L29.8101 100.417H31.1083L32.0774 109.865H31.1689L31.0175 108.181H29.9836L29.8322 109.865H28.8975ZM32.6047 107.206V106.347H33.5304V107.296C33.5156 107.667 33.5461 108.039 33.6213 108.404C33.6818 108.618 33.7942 108.726 33.9642 108.726C34.0419 108.728 34.1181 108.703 34.1791 108.655C34.2401 108.608 34.282 108.54 34.2973 108.464C34.3618 108.182 34.3895 107.894 34.3796 107.605C34.3864 107.253 34.3368 106.902 34.2326 106.566C34.1199 106.239 33.9643 105.928 33.7697 105.642L33.2982 104.92C33.0837 104.59 32.9109 104.236 32.7838 103.864C32.6559 103.454 32.5945 103.026 32.602 102.597C32.5655 102.002 32.6691 101.406 32.9048 100.858C33.0055 100.672 33.1585 100.519 33.3451 100.417C33.5317 100.316 33.744 100.271 33.9561 100.287C34.1746 100.271 34.392 100.328 34.5744 100.449C34.7568 100.569 34.8938 100.746 34.964 100.952C35.1678 101.575 35.2572 102.23 35.2279 102.885V103.473H34.3323V102.794C34.3431 102.464 34.3154 102.135 34.25 101.811C34.1981 101.609 34.0942 101.51 33.9429 101.51C33.8715 101.509 33.8016 101.531 33.7432 101.572C33.6849 101.613 33.6412 101.671 33.6183 101.738C33.5401 101.954 33.5063 102.183 33.5189 102.412C33.5091 102.657 33.5427 102.901 33.6183 103.134C33.7186 103.374 33.8416 103.604 33.9857 103.821L34.5136 104.68C34.7673 105.082 34.9679 105.515 35.1105 105.969C35.2491 106.428 35.3177 106.906 35.3138 107.386C35.3492 108.054 35.2462 108.722 35.0111 109.348C34.922 109.549 34.7728 109.717 34.5839 109.83C34.3951 109.943 34.1757 109.996 33.9556 109.981C33.7272 109.991 33.5014 109.928 33.3119 109.801C33.1224 109.674 32.9794 109.49 32.9043 109.275C32.6754 108.613 32.5741 107.914 32.6057 107.214L32.6047 107.206ZM35.8968 107.206V106.347H36.8183V107.296C36.8035 107.667 36.834 108.039 36.9092 108.404C36.9697 108.618 37.0865 108.726 37.2521 108.726C37.3301 108.729 37.4067 108.705 37.4678 108.656C37.529 108.608 37.5707 108.54 37.5852 108.464C37.6519 108.183 37.6796 107.894 37.6675 107.605C37.6738 107.253 37.6256 106.903 37.5247 106.566C37.4102 106.24 37.2547 105.929 37.0618 105.642L36.5902 104.92C36.3724 104.592 36.1994 104.237 36.0759 103.864C35.9443 103.454 35.8815 103.026 35.8899 102.597C35.8545 102.001 35.9597 101.406 36.1971 100.858C36.2974 100.671 36.4503 100.518 36.637 100.416C36.8237 100.315 37.0362 100.27 37.2484 100.286C37.4666 100.273 37.6834 100.33 37.8655 100.45C38.0475 100.571 38.1848 100.747 38.2564 100.952C38.4578 101.576 38.5471 102.23 38.5202 102.884V103.472H37.6205V102.794C37.6321 102.464 37.606 102.135 37.5426 101.811C37.4863 101.609 37.3868 101.51 37.2354 101.51C37.1635 101.509 37.0931 101.53 37.0341 101.571C36.9751 101.612 36.9305 101.67 36.9067 101.738C36.8285 101.954 36.7947 102.183 36.8073 102.412C36.7987 102.657 36.8339 102.901 36.9111 103.134C37.0079 103.374 37.1297 103.605 37.2746 103.821L37.8025 104.68C38.0562 105.082 38.2568 105.515 38.3994 105.968C38.5401 106.428 38.6087 106.906 38.6027 107.385C38.6404 108.053 38.5373 108.722 38.3 109.348C38.1992 109.544 38.0445 109.706 37.8538 109.818C37.6631 109.929 37.4444 109.984 37.2233 109.977C37.0023 109.969 36.788 109.899 36.6056 109.775C36.4232 109.65 36.2802 109.477 36.1934 109.275C35.9682 108.612 35.8686 107.913 35.8995 107.214L35.8968 107.206ZM39.3577 109.865V100.417H40.3311V109.865L39.3577 109.865ZM41.2004 107.206V106.347H42.1219V107.296C42.1057 107.668 42.1377 108.04 42.2172 108.404C42.2735 108.618 42.3901 108.726 42.5547 108.726C42.6327 108.729 42.7093 108.705 42.7705 108.657C42.8317 108.608 42.8733 108.54 42.8878 108.464C42.9545 108.183 42.9822 107.894 42.9701 107.605C42.9764 107.253 42.9282 106.903 42.8273 106.566C42.7128 106.24 42.5573 105.929 42.3644 105.642L41.9014 104.937C41.6853 104.608 41.5124 104.253 41.387 103.88C41.2576 103.47 41.1948 103.043 41.2011 102.613C41.1657 102.018 41.2708 101.422 41.5083 100.874C41.6086 100.688 41.7614 100.534 41.9482 100.433C42.1349 100.331 42.3474 100.286 42.5596 100.303C42.7778 100.289 42.9946 100.347 43.1766 100.467C43.3587 100.587 43.496 100.763 43.5675 100.968C43.7713 101.592 43.8607 102.246 43.8313 102.901V103.489H42.9317V102.811C42.9433 102.481 42.9172 102.151 42.8538 101.827C42.7974 101.625 42.698 101.527 42.5466 101.527C42.4748 101.526 42.4046 101.548 42.3457 101.588C42.2868 101.629 42.2421 101.687 42.2179 101.754C42.1414 101.971 42.1076 102.2 42.1184 102.429C42.1099 102.673 42.1451 102.918 42.2223 103.15C42.3208 103.391 42.4439 103.621 42.5897 103.837L43.1132 104.696C43.3669 105.099 43.5675 105.532 43.7101 105.985C43.8508 106.444 43.9194 106.922 43.9134 107.402C43.9508 108.071 43.8471 108.74 43.6089 109.367C43.5082 109.562 43.3534 109.725 43.1627 109.836C42.9721 109.948 42.7534 110.003 42.5323 109.995C42.3112 109.987 42.0969 109.917 41.9145 109.793C41.7321 109.669 41.5892 109.496 41.5024 109.294C41.2772 108.63 41.1775 107.931 41.2085 107.232L41.2004 107.206ZM44.9294 109.865V101.662H44.1811V100.417H46.6218V101.662H45.9036V109.865H44.9294ZM48.8753 107.026L48.4427 102.276L48.0491 107.026H48.8753ZM46.8724 109.865L47.785 100.417H49.0832L50.0522 109.865H49.1437L48.9924 108.181H47.9585L47.8201 109.865H46.8724ZM50.7138 109.865V100.417H51.4751L52.8334 106.086L52.7599 103.508V100.417H53.625V109.865H52.9372L51.541 103.998L51.5974 106.476V109.865L50.7138 109.865ZM54.923 109.865V101.662H54.1747V100.417H56.6102V101.662H55.892V109.865L54.923 109.865Z" fill="white"/>
</svg>
