<svg width="256" height="96" viewBox="0 0 256 96" fill="none" xmlns="http://www.w3.org/2000/svg">
<g clip-path="url(#clip0)" filter="url(#filter0_d)">
<path d="M39.113 65.2813C39.113 72.2499 37.5834 77.6249 34.524 81.4063C31.4534 85.2063 27.1394 87.1094 21.582 87.1094C16.019 87.1094 11.71 85.4219 8.62305 82.0469C5.53605 78.6719 4 73.7661 4 67.3281V52.125H16.53V66.6875C16.53 71.3908 17.2893 74.2658 18.808 75.3125C19.5628 75.7704 20.4347 75.9986 21.317 75.9688C22.1436 76.0544 22.9751 75.8603 23.681 75.4219C24.387 74.9835 24.9273 74.3257 25.217 73.5469C25.9653 71.0724 26.2835 68.4883 26.158 65.9063V1.01564H39.1171L39.113 65.2813ZM51.692 86.125V1.01564H80.218V12.2031H64.651V36.9531H79.442V47.8906H64.651V74.9531H80.796V86.125H51.696H51.692ZM91.163 86.125V1.01564H119.689V12.2031H104.122V36.9531H118.913V47.8906H104.122V74.9531H120.267V86.125H91.163ZM140.163 86.125L126.956 1.01564H139.288L144.851 39.4688L148.285 66.5313H148.632L151.57 39.4688L156.225 1.01564H168.309L156.175 86.125H140.163ZM177.356 86.125V1.01564H205.88V12.2031H190.313V36.9531H205.104V47.8906H190.313V74.9531H206.458V86.125H177.356ZM215.127 62.1875V54.5938H227.409V63.1563C227.409 67.8896 227.816 71.2229 228.63 73.1563C228.975 74.061 229.604 74.8256 230.422 75.3438C231.241 75.8619 232.204 76.1058 233.17 76.0313C235.399 76.0313 236.87 75.2503 237.594 73.6563C238.32 72.0783 238.683 69.5003 238.683 65.9063C238.755 62.6808 238.094 59.4806 236.752 56.5469C235.149 53.4643 233.078 50.6497 230.611 48.2031L224.322 41.7344C221.566 38.9254 219.255 35.7109 217.471 32.2031C215.785 28.6413 214.949 24.7367 215.028 20.7969C215.028 13.7656 216.382 8.54168 219.089 5.12501C221.813 1.70301 226.474 -0.00532088 233.071 1.24489e-05C239.671 1.24489e-05 244.148 2.00014 246.492 5.95314C248.836 9.95314 250.008 15.7709 250.008 23.4063V28.6875H238.056V22.5625C238.056 18.4532 237.698 15.5054 236.983 13.7188C236.698 12.8816 236.143 12.1584 235.404 11.6719C234.666 11.1853 233.787 10.9626 232.905 11.0313C232.066 10.9592 231.223 11.1152 230.458 11.4688C229.694 11.8223 229.035 12.3608 228.547 13.0469C227.656 14.4059 227.226 16.4376 227.226 19.1406C227.12 21.387 227.586 23.6234 228.58 25.6406C229.962 27.8815 231.602 29.9528 233.466 31.8125L240.466 39.4219C243.716 42.8229 246.402 46.7209 248.423 50.9688C250.243 54.9759 251.162 59.3334 251.114 63.7344C251.114 71.7031 249.777 77.5886 247.103 81.3906C244.428 85.1906 239.74 87.1094 233.054 87.1094C226.352 87.1094 221.691 84.9844 219.072 80.7344C216.444 76.4834 215.123 70.3275 215.123 62.1875H215.127Z" fill="#FEFEFE"/>
</g>
<defs>
<filter id="filter0_d" x="0" y="0" width="255.111" height="95.109" filterUnits="userSpaceOnUse" color-interpolation-filters="sRGB">
<feFlood flood-opacity="0" result="BackgroundImageFix"/>
<feColorMatrix in="SourceAlpha" type="matrix" values="0 0 0 0 0 0 0 0 0 0 0 0 0 0 0 0 0 0 127 0"/>
<feOffset dy="4"/>
<feGaussianBlur stdDeviation="2"/>
<feColorMatrix type="matrix" values="0 0 0 0 0 0 0 0 0 0 0 0 0 0 0 0 0 0 0.25 0"/>
<feBlend mode="normal" in2="BackgroundImageFix" result="effect1_dropShadow"/>
<feBlend mode="normal" in="SourceGraphic" in2="effect1_dropShadow" result="shape"/>
</filter>
<clipPath id="clip0">
<rect width="247.111" height="87.109" fill="white" transform="translate(4)"/>
</clipPath>
</defs>
</svg>
